<svg width="35" height="35" fill="none" xmlns="http://www.w3.org/2000/svg"><g clip-path="url(#clip0_4009_60)"><path fill-rule="evenodd" clip-rule="evenodd" d="M4.123 1.118a3.817 3.817 0 015.71.356l3.926 5.045c.72.925.974 2.13.69 3.268l-1.197 4.79a1.488 1.488 0 00.39 1.407l5.374 5.375a1.487 1.487 0 001.409.389l4.788-1.197a3.827 3.827 0 013.268.69l5.045 3.924a3.816 3.816 0 01.356 5.712l-2.262 2.261c-1.618 1.62-4.038 2.33-6.293 1.536a40.689 40.689 0 01-15.334-9.669A40.687 40.687 0 01.323 9.673C-.467 7.42.244 4.998 1.863 3.38l2.261-2.262z" fill="#fff"/></g><defs><clipPath id="clip0_4009_60"><path fill="#fff" d="M0 0h35v35H0z"/></clipPath></defs></svg>