<svg width="35" height="35" fill="none" xmlns="http://www.w3.org/2000/svg"><path d="M28.317 9.74c1.502 1.595 2.308 3.385 2.308 6.286 0 5.104-3.582 9.678-8.794 11.94l-1.302-2.01c4.863-2.63 5.814-6.044 6.195-8.197-.783.406-1.808.547-2.815.454-2.63-.244-4.704-2.403-4.704-5.088a5.104 5.104 0 015.104-5.104c1.565 0 3.063.714 4.008 1.72zm-14.584 0c1.502 1.595 2.309 3.385 2.309 6.286 0 5.104-3.582 9.678-8.794 11.94l-1.302-2.01c4.863-2.63 5.814-6.044 6.193-8.197-.783.406-1.808.547-2.813.454-2.63-.242-4.703-2.402-4.703-5.088A5.104 5.104 0 019.727 8.02c1.565 0 3.063.714 4.008 1.72" fill="#fff"/></svg>