<svg width="35" height="35" fill="none" xmlns="http://www.w3.org/2000/svg"><path fill-rule="evenodd" clip-rule="evenodd" d="M26.954 28.86v-.002l.027-.063 4.373-22.05v-.07c0-.55-.204-1.03-.644-1.317-.387-.252-.832-.27-1.144-.246a3.91 3.91 0 00-.854.175 4.707 4.707 0 00-.35.128l-.02.007L3.96 14.987l-.007.003a3.315 3.315 0 00-.715.366c-.313.216-.91.724-.809 1.529.083.668.543 1.09.853 1.31.184.13.38.237.588.322l.047.02.014.004.01.005 4.268 1.436c-.015.267.011.54.083.81l2.136 8.106a2.187 2.187 0 004.133.286l3.337-3.567 5.73 4.393.081.035c.52.227 1.006.299 1.451.239a2.168 2.168 0 001.063-.46 2.54 2.54 0 00.715-.926l.012-.024.004-.01.001-.004zm-16.549-8.625a.438.438 0 01.19-.482l14.468-9.187s.852-.518.821 0c0 0 .152.09-.305.514-.431.405-10.312 9.943-11.312 10.909a.406.406 0 00-.112.198l-1.613 6.154-2.137-8.107z" fill="#fff"/></svg>