<svg width="35" height="35" fill="none" xmlns="http://www.w3.org/2000/svg"><g clip-path="url(#clip0_4009_85)"><path fill-rule="evenodd" clip-rule="evenodd" d="M34.198 8.674c.242-.796 0-1.382-1.16-1.382H29.21c-.974 0-1.423.506-1.666 1.064 0 0-1.947 4.661-4.705 7.689-.892.878-1.298 1.156-1.785 1.156-.244 0-.61-.278-.61-1.076v-7.45c0-.957-.268-1.383-1.079-1.383h-6.02c-.608 0-.974.443-.974.865 0 .905 1.38 1.115 1.521 3.664v5.54c0 1.214-.223 1.434-.71 1.434-1.298 0-4.455-4.683-6.33-10.04-.362-1.043-.73-1.463-1.708-1.463H1.312C.22 7.292 0 7.798 0 8.356c0 .995 1.298 5.936 6.045 12.47 3.164 4.463 7.62 6.882 11.678 6.882 2.434 0 2.735-.536 2.735-1.462v-3.373c0-1.075.23-1.29 1.001-1.29.57 0 1.542.28 3.814 2.432 2.596 2.55 3.023 3.693 4.484 3.693h3.828c1.094 0 1.642-.536 1.328-1.598-.348-1.056-1.587-2.588-3.23-4.407-.893-1.035-2.232-2.151-2.639-2.71-.567-.716-.405-1.035 0-1.672 0 0 4.667-6.455 5.152-8.647" fill="#fff"/></g><defs><clipPath id="clip0_4009_85"><path fill="#fff" d="M0 0h35v35H0z"/></clipPath></defs></svg>