<svg width="40" height="40" viewBox="0 0 40 40" fill="none" xmlns="http://www.w3.org/2000/svg">
<path d="M4.09 26.7674C4.55882 27.2361 5.19459 27.4993 5.8575 27.4993C6.52041 27.4993 7.15618 27.2361 7.625 26.7674L20 14.3924L32.375 26.7674C32.8465 27.2228 33.478 27.4748 34.1335 27.4691C34.789 27.4634 35.416 27.2004 35.8795 26.7369C36.3431 26.2734 36.606 25.6464 36.6117 24.9909C36.6174 24.3354 36.3654 23.7039 35.91 23.2324L21.7675 9.08988C21.2987 8.6212 20.6629 8.35791 20 8.35791C19.3371 8.35791 18.7013 8.6212 18.2325 9.08988L4.09 23.2324C3.62132 23.7012 3.35803 24.337 3.35803 24.9999C3.35803 25.6628 3.62132 26.2986 4.09 26.7674Z" fill="white"/>
</svg>
