<svg width="35" height="35" viewBox="0 0 35 35" fill="none" xmlns="http://www.w3.org/2000/svg">
<path d="M17.5 2.8125C20.7323 2.8125 23.8323 4.09654 26.1179 6.38214C28.4035 8.66774 29.6875 11.7677 29.6875 15C29.6875 20.15 26.0688 25.7625 18.925 31.8975C18.5278 32.2387 18.0213 32.4261 17.4977 32.4257C16.974 32.4252 16.4679 32.2369 16.0713 31.895L15.5988 31.485C8.77125 25.51 5.3125 20.035 5.3125 15C5.3125 11.7677 6.59654 8.66774 8.88214 6.38214C11.1677 4.09654 14.2677 2.8125 17.5 2.8125ZM17.5 10.3125C16.2568 10.3125 15.0645 10.8064 14.1854 11.6854C13.3064 12.5645 12.8125 13.7568 12.8125 15C12.8125 16.2432 13.3064 17.4355 14.1854 18.3146C15.0645 19.1936 16.2568 19.6875 17.5 19.6875C18.7432 19.6875 19.9355 19.1936 20.8146 18.3146C21.6936 17.4355 22.1875 16.2432 22.1875 15C22.1875 13.7568 21.6936 12.5645 20.8146 11.6854C19.9355 10.8064 18.7432 10.3125 17.5 10.3125Z" fill="white"/>
</svg>
