<svg width="35" height="35" viewBox="0 0 35 35" fill="none" xmlns="http://www.w3.org/2000/svg">
<path d="M5.83329 29.1666C5.03121 29.1666 4.34482 28.8812 3.77413 28.3105C3.20343 27.7398 2.9176 27.053 2.91663 26.2499V8.74992C2.91663 7.94784 3.20246 7.26145 3.77413 6.69075C4.34579 6.12006 5.03218 5.83422 5.83329 5.83325H29.1666C29.9687 5.83325 30.6556 6.11909 31.2273 6.69075C31.7989 7.26242 32.0843 7.94881 32.0833 8.74992V26.2499C32.0833 27.052 31.7979 27.7389 31.2273 28.3105C30.6566 28.8822 29.9697 29.1676 29.1666 29.1666H5.83329ZM17.5 18.9583L29.1666 11.6666V8.74992L17.5 16.0416L5.83329 8.74992V11.6666L17.5 18.9583Z" fill="white"/>
</svg>
