<svg width="35" height="35" viewBox="0 0 35 35" fill="none" xmlns="http://www.w3.org/2000/svg">
<g clip-path="url(#clip0_4009_60)">
<path fill-rule="evenodd" clip-rule="evenodd" d="M4.12349 1.11771C4.50625 0.735526 4.96586 0.439053 5.47186 0.247935C5.97786 0.0568165 6.5187 -0.0245826 7.05855 0.00913164C7.59839 0.0428458 8.1249 0.190903 8.60319 0.443493C9.08148 0.696082 9.50063 1.04744 9.83287 1.47427L13.7594 6.51864C14.4791 7.44396 14.7329 8.64927 14.4485 9.78677L13.2519 14.5774C13.1905 14.8255 13.1941 15.0853 13.2623 15.3317C13.3305 15.5781 13.461 15.8027 13.6413 15.984L19.016 21.3586C19.1974 21.5393 19.4224 21.6701 19.6692 21.7383C19.916 21.8065 20.1763 21.8099 20.4247 21.748L25.2132 20.5515C25.7746 20.4119 26.3603 20.4014 26.9264 20.5208C27.4924 20.6401 28.024 20.8862 28.4813 21.2405L33.5257 25.1649C35.3391 26.5758 35.5054 29.2555 33.8822 30.8765L31.6204 33.1383C30.0016 34.7571 27.5822 35.468 25.3269 34.674C19.5534 32.6452 14.3119 29.3403 9.99255 25.0052C5.65774 20.6865 2.35282 15.4458 0.323804 9.67302C-0.468071 7.41989 0.242866 4.99833 1.86162 3.37958L4.12349 1.11771Z" fill="white"/>
</g>
<defs>
<clipPath id="clip0_4009_60">
<rect width="35" height="35" fill="white"/>
</clipPath>
</defs>
</svg>
