<svg width="35" height="35" viewBox="0 0 35 35" fill="none" xmlns="http://www.w3.org/2000/svg">
<path d="M28.3165 9.74013C29.8185 11.3355 30.625 13.1249 30.625 16.0255C30.625 21.1297 27.0433 25.7045 21.8313 27.9664L20.529 25.9568C25.3925 23.326 26.3433 19.912 26.724 17.7595C25.9408 18.1649 24.9156 18.3064 23.9094 18.213C21.2785 17.9695 19.2048 15.8097 19.2048 13.1249C19.2048 11.7712 19.7426 10.4729 20.6998 9.51573C21.657 8.55851 22.9553 8.02075 24.309 8.02075C25.8738 8.02075 27.3715 8.73534 28.3165 9.74013ZM13.7331 9.74013C15.2352 11.3355 16.0417 13.1249 16.0417 16.0255C16.0417 21.1297 12.46 25.7045 7.24792 27.9664L5.94563 25.9568C10.8092 23.326 11.76 19.912 12.1392 17.7595C11.3561 18.1649 10.3308 18.3064 9.32605 18.213C6.69522 17.971 4.62292 15.8112 4.62292 13.1249C4.62292 11.7712 5.16068 10.4729 6.1179 9.51573C7.07512 8.55851 8.37338 8.02075 9.72709 8.02075C11.2919 8.02075 12.7896 8.73534 13.7346 9.74013" fill="white"/>
</svg>
