<svg width="35" height="35" viewBox="0 0 35 35" fill="none" xmlns="http://www.w3.org/2000/svg">
<path fill-rule="evenodd" clip-rule="evenodd" d="M26.9544 28.8605V28.8576L26.9806 28.7949L31.3542 6.74489V6.67489C31.3542 6.1251 31.15 5.64531 30.7096 5.35802C30.3231 5.10572 29.8783 5.08822 29.5663 5.11156C29.2758 5.13783 28.9891 5.19653 28.7117 5.28656C28.5934 5.3247 28.4766 5.36751 28.3617 5.41489L28.3427 5.42218L3.95938 14.9874L3.95209 14.9903C3.87796 15.0156 3.8054 15.0453 3.7348 15.0793C3.56139 15.1572 3.39501 15.2499 3.23751 15.3563C2.92397 15.5722 2.32751 16.0797 2.42813 16.8847C2.51126 17.5526 2.97063 17.9755 3.28126 18.1957C3.46461 18.3242 3.66173 18.4318 3.86897 18.5166L3.91563 18.537L3.93022 18.5413L3.94043 18.5457L8.20751 19.9822C8.19292 20.2491 8.21918 20.5218 8.29063 20.7916L10.4271 28.8984C10.5438 29.3403 10.796 29.7346 11.1483 30.0258C11.5005 30.317 11.9352 30.4906 12.3911 30.5221C12.8471 30.5536 13.3015 30.4416 13.6905 30.2016C14.0795 29.9617 14.3836 29.6059 14.56 29.1843L17.8967 25.6172L23.6265 30.0097L23.7081 30.0447C24.2288 30.2722 24.7144 30.3436 25.1592 30.2838C25.604 30.2226 25.9569 30.0359 26.2223 29.8245C26.5293 29.5756 26.774 29.2585 26.9369 28.8984L26.9486 28.8736L26.9529 28.8649L26.9544 28.8605ZM10.4052 20.2345C10.3816 20.1445 10.3872 20.0494 10.4213 19.9628C10.4554 19.8763 10.5161 19.8029 10.5948 19.7532L25.0629 10.5657C25.0629 10.5657 25.9146 10.048 25.884 10.5657C25.884 10.5657 26.0356 10.6561 25.5792 11.0805C25.1475 11.4845 15.2673 21.0234 14.2669 21.9888C14.2113 22.0429 14.1723 22.1117 14.1546 22.1872L12.5417 28.3413L10.4052 20.2345Z" fill="white"/>
</svg>
