<svg width="35" height="35" viewBox="0 0 35 35" fill="none" xmlns="http://www.w3.org/2000/svg">
<g clip-path="url(#clip0_4009_85)">
<path fill-rule="evenodd" clip-rule="evenodd" d="M34.1979 8.67425C34.44 7.878 34.1979 7.29175 33.0385 7.29175H29.2104C28.2362 7.29175 27.7871 7.79779 27.5435 8.35633C27.5435 8.35633 25.5967 13.0172 22.839 16.0447C21.9465 16.9226 21.541 17.2011 21.054 17.2011C20.8104 17.2011 20.4444 16.9226 20.4444 16.1249V8.67425C20.4444 7.71758 20.176 7.29175 19.3652 7.29175H13.3452C12.7371 7.29175 12.371 7.73508 12.371 8.15654C12.371 9.06216 13.7506 9.27216 13.8921 11.8213V17.3601C13.8921 18.5749 13.669 18.7951 13.1819 18.7951C11.884 18.7951 8.72667 14.1124 6.85271 8.75446C6.48958 7.71175 6.12208 7.29175 5.14354 7.29175H1.3125C0.21875 7.29175 0 7.79779 0 8.35633C0 9.35091 1.29792 14.2917 6.04479 20.8265C9.20937 25.289 13.6646 27.7084 17.7231 27.7084C20.1571 27.7084 20.4575 27.1717 20.4575 26.2457V22.8726C20.4575 21.7978 20.6879 21.5834 21.4594 21.5834C22.0281 21.5834 23.0008 21.8634 25.2729 24.0145C27.8687 26.5651 28.296 27.7084 29.7573 27.7084H33.5854C34.6792 27.7084 35.2275 27.1717 34.9125 26.1101C34.5654 25.0542 33.3258 23.5215 31.6823 21.703C30.7898 20.6676 29.451 19.552 29.0442 18.9934C28.4769 18.2774 28.6387 17.958 29.0442 17.3207C29.0442 17.3207 33.7108 10.8661 34.1965 8.67425" fill="white"/>
</g>
<defs>
<clipPath id="clip0_4009_85">
<rect width="35" height="35" fill="white"/>
</clipPath>
</defs>
</svg>
